<?xml version="1.0" encoding="UTF-8"?>
<svg width="52px" height="52px" viewBox="0 0 52 52" version="1.1" xmlns="http://www.w3.org/2000/svg" xmlns:xlink="http://www.w3.org/1999/xlink">
    <!-- Generator: Sketch 48.2 (47327) - http://www.bohemiancoding.com/sketch -->
    <title>pinterest Gray</title>
    <desc>Created with Sketch.</desc>
    <defs>
        <circle id="path-1" cx="24" cy="24" r="24"></circle>
        <filter x="-7.3%" y="-5.2%" width="114.6%" height="114.6%" filterUnits="objectBoundingBox" id="filter-2">
            <feOffset dx="0" dy="1" in="SourceAlpha" result="shadowOffsetOuter1"></feOffset>
            <feGaussianBlur stdDeviation="1" in="shadowOffsetOuter1" result="shadowBlurOuter1"></feGaussianBlur>
            <feColorMatrix values="0 0 0 0 0   0 0 0 0 0   0 0 0 0 0  0 0 0 0.16 0" type="matrix" in="shadowBlurOuter1"></feColorMatrix>
        </filter>
    </defs>
    <g id="AHA-Recipe-Landing" stroke="none" stroke-width="1" fill="none" fill-rule="evenodd" transform="translate(-506.000000, -6508.000000)">
        <g id="Footer" transform="translate(0.000000, 5948.000000)">
            <g id="pinterest-Gray" transform="translate(508.000000, 561.000000)">
                <g id="Base">
                    <use fill="black" fill-opacity="1" filter="url(#filter-2)" xlink:href="#path-1"></use>
                    <use fill="#6D6E71" fill-rule="evenodd" xlink:href="#path-1"></use>
                </g>
                <path d="M24.5985145,16 C20.2123627,16 18.0010667,19.1302993 18.0010667,21.7415483 C18.0010667,23.3218073 18.601885,24.7278645 19.8915114,25.2522474 C20.1030422,25.3384595 20.2923533,25.2549137 20.3536794,25.0220522 C20.3963411,24.8611822 20.4976625,24.4541188 20.5421017,24.284361 C20.6043167,24.0541658 20.5803195,23.9732864 20.4096729,23.7724211 C20.0372721,23.3360278 19.7999666,22.7707609 19.7999666,21.969966 C19.7999666,19.6475719 21.5455395,17.5687048 24.3452109,17.5687048 C26.8240311,17.5687048 28.1856491,19.0769722 28.1856491,21.0900692 C28.1856491,23.7404248 27.0080095,25.9766068 25.2588815,25.9766068 C24.2936614,25.9766068 23.5710796,25.1811446 23.8021636,24.2061479 C24.0803531,23.0427289 24.617179,21.7859876 24.617179,20.9451973 C24.617179,20.1932856 24.2118932,19.5658037 23.3719918,19.5658037 C22.3854409,19.5658037 21.5926451,20.5825732 21.5926451,21.9441912 C21.5926451,22.8125337 21.8868328,23.3991316 21.8868328,23.3991316 C21.8868328,23.3991316 20.8762847,27.6599648 20.6994166,28.4065438 C20.3465692,29.8925916 20.6469783,31.7146 20.6718643,31.8994672 C20.6869736,32.0078989 20.8274016,32.0336736 20.8913941,31.9519055 C20.9820501,31.8328083 22.1579121,30.3885334 22.5578652,28.9442585 C22.6707408,28.5354176 23.2066779,26.4183327 23.2066779,26.4183327 C23.5275291,27.0271502 24.4651968,27.563976 25.4615244,27.563976 C28.429176,27.563976 30.4422731,24.87007 30.4422731,21.2651598 C30.4422731,18.5392575 28.1234341,16 24.5985145,16 Z" id="Shape" fill="#FFFFFF" fill-rule="nonzero"></path>
            </g>
        </g>
    </g>
</svg>