<?xml version="1.0" encoding="UTF-8" standalone="no"?>
<svg
   xmlns="http://www.w3.org/2000/svg"
   width="24px"
   height="24px"
   viewBox="0 0 23.414101 23.414062">
  <g transform="translate(-1358,-18)">
    <path d="m 1374.4004,32.986328 -1.4141,1.414063 0.7071,0.707031 5.5996,5.599609 0.707,0.707031 1.4141,-1.414062 -0.7071,-0.707031 -5.5996,-5.59961 z" />
    <path d="m 1368,18 c -5.511,0 -10,4.488997 -10,10 0,5.511003 4.489,10 10,10 5.511,0 10,-4.488997 10,-10 0,-5.511003 -4.489,-10 -10,-10 z m 0,2 c 4.4301,0 8,3.569877 8,8 0,4.430123 -3.5699,8 -8,8 -4.4301,0 -8,-3.569877 -8,-8 0,-4.430123 3.5699,-8 8,-8 z" />
  </g>
</svg>
